<?xml version="1.0" encoding="UTF-8" standalone="no"?>
<!-- Created with Inkscape (http://www.inkscape.org/) -->

<svg
   version="1.1"
   id="svg1"
   width="382.72"
   height="100.15999"
   viewBox="0 0 382.72 100.15999"
   xmlns="http://www.w3.org/2000/svg"
   xmlns:svg="http://www.w3.org/2000/svg">
  <defs
     id="defs1">
    <clipPath
       clipPathUnits="userSpaceOnUse"
       id="clipPath2">
      <path
         d="M 0,0 H 1195.8333 V 310.91663 H 0 Z"
         transform="scale(0.33449481)"
         clip-rule="evenodd"
         id="path2" />
    </clipPath>
    <clipPath
       clipPathUnits="userSpaceOnUse"
       id="clipPath4">
      <path
         d="M 0,0 H 1195.8333 V 307.92706 H 0 Z"
         transform="matrix(0.33449481,0,0,0.33449481,-0.5,-0.5)"
         clip-rule="evenodd"
         id="path4" />
    </clipPath>
    <clipPath
       clipPathUnits="userSpaceOnUse"
       id="clipPath5">
      <path
         d="M 0,0 H 1195.8333 V 307.92706 H 0 Z"
         transform="matrix(0.33449481,0,0,0.33449481,-78.65625,-55)"
         clip-rule="evenodd"
         id="path5" />
    </clipPath>
    <clipPath
       clipPathUnits="userSpaceOnUse"
       id="clipPath7">
      <path
         d="M 0,0 H 1195.8333 V 307.92706 H 0 Z"
         transform="matrix(0.33449481,0,0,0.33449481,-0.5,-0.5)"
         clip-rule="evenodd"
         id="path7" />
    </clipPath>
    <clipPath
       clipPathUnits="userSpaceOnUse"
       id="clipPath8">
      <path
         d="M 0,0 H 1195.8333 V 307.92706 H 0 Z"
         transform="matrix(0.33449481,0,0,0.33449481,-302.65625,-55)"
         clip-rule="evenodd"
         id="path8" />
    </clipPath>
    <clipPath
       clipPathUnits="userSpaceOnUse"
       id="clipPath10">
      <path
         d="M 0,0 H 1195.8333 V 307.92706 H 0 Z"
         transform="matrix(0.33449481,0,0,0.33449481,-0.5,-0.5)"
         clip-rule="evenodd"
         id="path10" />
    </clipPath>
    <clipPath
       clipPathUnits="userSpaceOnUse"
       id="clipPath11">
      <path
         d="M 0,0 H 1195.8333 V 307.92706 H 0 Z"
         transform="matrix(0.33449481,0,0,0.33449481,-188.32813,-55)"
         clip-rule="evenodd"
         id="path11" />
    </clipPath>
    <clipPath
       clipPathUnits="userSpaceOnUse"
       id="clipPath13">
      <path
         d="M 0,0 H 1195.8333 V 307.92706 H 0 Z"
         transform="matrix(0.33449481,0,0,0.33449481,-0.5,-0.5)"
         clip-rule="evenodd"
         id="path13" />
    </clipPath>
    <clipPath
       clipPathUnits="userSpaceOnUse"
       id="clipPath15">
      <path
         d="M 0,0 H 1195.8333 V 307.92706 H 0 Z"
         transform="matrix(0.33449481,0,0,0.33449481,-0.5,-0.5)"
         clip-rule="evenodd"
         id="path15" />
    </clipPath>
    <clipPath
       clipPathUnits="userSpaceOnUse"
       id="clipPath17">
      <path
         d="M 0,0 H 1195.8333 V 307.92706 H 0 Z"
         transform="matrix(0.33449481,0,0,0.33449481,-0.5,-0.5)"
         clip-rule="evenodd"
         id="path17" />
    </clipPath>
    <clipPath
       clipPathUnits="userSpaceOnUse"
       id="clipPath19">
      <path
         d="M 0,0 H 1195.8333 V 307.92706 H 0 Z"
         transform="matrix(0.33449481,0,0,0.33449481,-0.5,-0.5)"
         clip-rule="evenodd"
         id="path19" />
    </clipPath>
    <clipPath
       clipPathUnits="userSpaceOnUse"
       id="clipPath20">
      <path
         d="M 0,0 H 1195.8333 V 307.92706 H 0 Z"
         transform="matrix(0.33449481,0,0,0.33449481,-4.484375,-90)"
         clip-rule="evenodd"
         id="path20" />
    </clipPath>
    <clipPath
       clipPathUnits="userSpaceOnUse"
       id="clipPath21">
      <path
         d="M 0,0 H 1195.8333 V 307.92706 H 0 Z"
         transform="matrix(0.33449481,0,0,0.33449481,-225.98438,-90)"
         clip-rule="evenodd"
         id="path21" />
    </clipPath>
    <clipPath
       clipPathUnits="userSpaceOnUse"
       id="clipPath22">
      <path
         d="M 0,0 H 1195.8333 V 307.92706 H 0 Z"
         transform="matrix(0.33449481,0,0,0.33449481,-137.1875,-20)"
         clip-rule="evenodd"
         id="path22" />
    </clipPath>
  </defs>
  <g
     id="g1">
    <path
       id="path1"
       d="M 0,0 H 400 V 104 H 0 Z"
       style="fill:#ffffff;fill-opacity:1;fill-rule:nonzero;stroke:none"
       transform="scale(0.95666652)"
       clip-path="url(#clipPath2)" />
    <path
       id="path3"
       d="m 106,51 c -1e-5,1.313217 -0.12811,2.613819 -0.38431,3.901806 -0.2562,1.287983 -0.63557,2.538601 -1.13812,3.751858 -0.50256,1.213253 -1.11862,2.365833 -1.8482,3.457737 -0.72959,1.091899 -1.55867,2.102146 -2.48725,3.030735 -0.928589,0.928581 -1.938835,1.75766 -3.030731,2.487251 -1.091904,0.729584 -2.244484,1.34565 -3.457741,1.84819 -1.213249,0.502548 -2.463867,0.88192 -3.751854,1.138123 C 88.613808,70.871895 87.31321,70.999992 86,71 c -1.313225,-8e-6 -2.613823,-0.128105 -3.90181,-0.3843 -1.287986,-0.256203 -2.538604,-0.635575 -3.751861,-1.138123 -1.213257,-0.50254 -2.365837,-1.118606 -3.457733,-1.84819 -1.091904,-0.729591 -2.10215,-1.55867 -3.030732,-2.487251 -0.928588,-0.928589 -1.757675,-1.938836 -2.487259,-3.030739 -0.729591,-1.0919 -1.345657,-2.24448 -1.848197,-3.457733 C 67.019867,57.440407 66.640495,56.189789 66.384293,54.901806 66.128098,53.613819 66,52.313217 66,51 c 0,-1.313221 0.128098,-2.613823 0.384293,-3.90181 0.256202,-1.287986 0.635574,-2.538608 1.138115,-3.751861 0.50254,-1.213253 1.118606,-2.365834 1.84819,-3.457733 0.729591,-1.0919 1.558678,-2.102147 2.487266,-3.030732 0.928582,-0.928585 1.938828,-1.757671 3.030732,-2.487255 1.091896,-0.729587 2.244476,-1.345657 3.457733,-1.848201 1.213257,-0.502549 2.463875,-0.881918 3.751861,-1.138113 C 83.386177,31.128098 84.686775,31 86,31 c 1.31321,0 2.613808,0.128098 3.901794,0.384293 1.287987,0.256197 2.538605,0.635566 3.751854,1.138115 1.213257,0.502544 2.365837,1.118614 3.457741,1.848201 1.091896,0.729584 2.102142,1.55867 3.030731,2.487255 0.92858,0.928585 1.75766,1.938828 2.48725,3.030728 0.72958,1.0919 1.34565,2.24448 1.84821,3.457733 0.50254,1.213257 0.88191,2.463879 1.13811,3.751865 0.2562,1.287987 0.3843,2.588589 0.38431,3.90181 z"
       style="fill:#ffffff;fill-opacity:1;fill-rule:nonzero;stroke:#000000;stroke-width:1;stroke-linecap:butt;stroke-linejoin:miter;stroke-miterlimit:10;stroke-dasharray:none;stroke-opacity:1"
       transform="matrix(0.95666652,0,0,0.95666652,0.47833326,0.47833326)"
       clip-path="url(#clipPath4)" />
    <text
       id="text4"
       xml:space="preserve"
       transform="matrix(0.95666652,0,0,0.95666652,75.247801,52.616659)"
       clip-path="url(#clipPath5)"><tspan
         id="tspan4"
         style="font-variant:normal;font-weight:700;font-size:12px;font-family:Arial;writing-mode:lr-tb;fill:#000000;fill-opacity:1;fill-rule:nonzero;stroke:none"
         x="0"
         y="0">S1</tspan></text>
    <path
       id="path6"
       d="m 330,51 c -3e-5,1.313217 -0.12814,2.613819 -0.38434,3.901806 -0.25619,1.287983 -0.63559,2.538601 -1.13812,3.751858 -0.50253,1.213253 -1.11862,2.365833 -1.84821,3.457737 -0.72958,1.091899 -1.55865,2.102146 -2.48724,3.030735 -0.92859,0.928581 -1.93884,1.75766 -3.03076,2.487251 -1.09189,0.729584 -2.24448,1.34565 -3.45774,1.84819 -1.21325,0.502548 -2.46386,0.88192 -3.75186,1.138123 C 312.61377,70.871895 311.3132,70.999992 310,71 c -1.31323,-8e-6 -2.61383,-0.128105 -3.90179,-0.3843 -1.288,-0.256203 -2.53864,-0.635575 -3.7519,-1.138123 -1.21325,-0.50254 -2.36584,-1.118606 -3.45776,-1.84819 -1.09189,-0.729591 -2.10214,-1.55867 -3.0307,-2.487251 -0.92862,-0.928589 -1.75769,-1.938836 -2.48728,-3.030739 -0.72958,-1.0919 -1.34564,-2.24448 -1.84817,-3.457733 -0.50256,-1.213257 -0.88193,-2.463875 -1.13812,-3.751858 C 290.12808,53.613819 290,52.313217 290,51 c 0,-1.313221 0.12808,-2.613823 0.38428,-3.90181 0.25619,-1.287986 0.63556,-2.538608 1.13812,-3.751861 0.50253,-1.213253 1.11859,-2.365834 1.84817,-3.457733 0.72959,-1.0919 1.55866,-2.102147 2.48728,-3.030732 0.92856,-0.928585 1.93881,-1.757671 3.0307,-2.487255 1.09192,-0.729587 2.24451,-1.345657 3.45776,-1.848201 1.21326,-0.502549 2.4639,-0.881918 3.7519,-1.138113 C 307.38617,31.128098 308.68677,31 310,31 c 1.3132,0 2.61377,0.128098 3.90173,0.384293 1.288,0.256197 2.53861,0.635566 3.75186,1.138115 1.21326,0.502544 2.36585,1.118614 3.45774,1.848201 1.09192,0.729584 2.10217,1.55867 3.03076,2.487255 0.92859,0.928585 1.75766,1.938828 2.48724,3.030728 0.72959,1.0919 1.34568,2.24448 1.84821,3.457733 0.50253,1.213257 0.88193,2.463879 1.13812,3.751865 0.2562,1.287987 0.38431,2.588589 0.38434,3.90181 z"
       style="fill:#ffffff;fill-opacity:1;fill-rule:nonzero;stroke:#000000;stroke-width:1;stroke-linecap:butt;stroke-linejoin:miter;stroke-miterlimit:10;stroke-dasharray:none;stroke-opacity:1"
       transform="matrix(0.95666652,0,0,0.95666652,0.47833326,0.47833326)"
       clip-path="url(#clipPath7)" />
    <text
       id="text7"
       xml:space="preserve"
       transform="matrix(0.95666652,0,0,0.95666652,289.5411,52.616659)"
       clip-path="url(#clipPath8)"><tspan
         id="tspan7"
         style="font-variant:normal;font-weight:700;font-size:12px;font-family:Arial;writing-mode:lr-tb;fill:#000000;fill-opacity:1;fill-rule:nonzero;stroke:none"
         x="0"
         y="0">S2</tspan></text>
    <path
       id="path9"
       d="m 216,51 c -2e-5,1.313217 -0.12811,2.613819 -0.38432,3.901806 -0.25621,1.287983 -0.63559,2.538601 -1.13814,3.751858 -0.50255,1.213253 -1.11861,2.365833 -1.84819,3.457737 -0.72958,1.091899 -1.55867,2.102146 -2.48724,3.030735 -0.92859,0.928581 -1.93883,1.75766 -3.03074,2.487251 -1.0919,0.729584 -2.24449,1.34565 -3.45774,1.84819 -1.21325,0.502548 -2.46387,0.88192 -3.75185,1.138123 C 198.6138,70.871895 197.31322,70.999992 196,71 c -1.31322,-8e-6 -2.61383,-0.128105 -3.90182,-0.3843 -1.28798,-0.256203 -2.53861,-0.635575 -3.75187,-1.138123 -1.21325,-0.50254 -2.36583,-1.118606 -3.45773,-1.84819 -1.0919,-0.729591 -2.10214,-1.55867 -3.03072,-2.487251 -0.92858,-0.928589 -1.75767,-1.938836 -2.48725,-3.030739 -0.7296,-1.0919 -1.34568,-2.24448 -1.84821,-3.457733 -0.50255,-1.213257 -0.88193,-2.463875 -1.13812,-3.751858 C 176.12808,53.613819 175.99998,52.313217 176,51 c -2e-5,-1.313221 0.12808,-2.613823 0.38428,-3.90181 0.25619,-1.287986 0.63557,-2.538608 1.13812,-3.751861 0.50253,-1.213253 1.11861,-2.365834 1.84821,-3.457733 0.72958,-1.0919 1.55867,-2.102147 2.48725,-3.030732 0.92858,-0.928585 1.93882,-1.757671 3.03072,-2.487255 1.0919,-0.729587 2.24448,-1.345657 3.45773,-1.848201 1.21326,-0.502549 2.46389,-0.881918 3.75187,-1.138113 C 193.38617,31.128098 194.68678,31 196,31 c 1.31322,0 2.6138,0.128098 3.90178,0.384293 1.28798,0.256197 2.5386,0.635566 3.75185,1.138115 1.21325,0.502544 2.36584,1.118614 3.45774,1.848201 1.09191,0.729584 2.10215,1.55867 3.03074,2.487255 0.92857,0.928585 1.75766,1.938828 2.48724,3.030728 0.72958,1.0919 1.34564,2.24448 1.84819,3.457733 0.50255,1.213257 0.88193,2.463879 1.13814,3.751865 0.25621,1.287987 0.3843,2.588589 0.38432,3.90181 z"
       style="fill:#ffffff;fill-opacity:1;fill-rule:nonzero;stroke:#000000;stroke-width:1;stroke-linecap:butt;stroke-linejoin:miter;stroke-miterlimit:10;stroke-dasharray:none;stroke-opacity:1"
       transform="matrix(0.95666652,0,0,0.95666652,0.47833326,0.47833326)"
       clip-path="url(#clipPath10)" />
    <text
       id="text10"
       xml:space="preserve"
       transform="matrix(0.95666652,0,0,0.95666652,180.16722,52.616659)"
       clip-path="url(#clipPath11)"><tspan
         id="tspan10"
         style="font-variant:normal;font-weight:700;font-size:12px;font-family:Arial;writing-mode:lr-tb;fill:#000000;fill-opacity:1;fill-rule:nonzero;stroke:none"
         x="0"
         y="0">H1</tspan></text>
    <path
       id="path12"
       d="m 106,51 h 63.63"
       style="fill:none;stroke:#000000;stroke-width:1;stroke-linecap:butt;stroke-linejoin:miter;stroke-miterlimit:10;stroke-dasharray:none;stroke-opacity:1"
       transform="matrix(0.95666652,0,0,0.95666652,0.47833326,0.47833326)"
       clip-path="url(#clipPath13)" />
    <path
       id="path14"
       d="m 174.88,51 -7,3.5 1.75,-3.5 -1.75,-3.5 z"
       style="fill:#000000;fill-opacity:1;fill-rule:nonzero;stroke:#000000;stroke-width:1;stroke-linecap:butt;stroke-linejoin:miter;stroke-miterlimit:10;stroke-dasharray:none;stroke-opacity:1"
       transform="matrix(0.95666652,0,0,0.95666652,0.47833326,0.47833326)"
       clip-path="url(#clipPath15)" />
    <path
       id="path16"
       d="M 290,51 H 222.37"
       style="fill:none;stroke:#000000;stroke-width:1;stroke-linecap:butt;stroke-linejoin:miter;stroke-miterlimit:10;stroke-dasharray:none;stroke-opacity:1"
       transform="matrix(0.95666652,0,0,0.95666652,0.47833326,0.47833326)"
       clip-path="url(#clipPath17)" />
    <path
       id="path18"
       d="m 217.12,51 7,-3.5 -1.75,3.5 1.75,3.5 z"
       style="fill:#000000;fill-opacity:1;fill-rule:nonzero;stroke:#000000;stroke-width:1;stroke-linecap:butt;stroke-linejoin:miter;stroke-miterlimit:10;stroke-dasharray:none;stroke-opacity:1"
       transform="matrix(0.95666652,0,0,0.95666652,0.47833326,0.47833326)"
       clip-path="url(#clipPath19)" />
    <text
       id="text19"
       xml:space="preserve"
       transform="matrix(0.95666652,0,0,0.95666652,4.2900514,86.099987)"
       clip-path="url(#clipPath20)"><tspan
         id="tspan19"
         style="font-variant:normal;font-weight:700;font-size:14px;font-family:'Courier New';writing-mode:lr-tb;fill:#000000;fill-opacity:1;fill-rule:nonzero;stroke:none"
         x="0"
         y="0">MPUI_Send(buff1, H1)</tspan></text>
    <text
       id="text20"
       xml:space="preserve"
       transform="matrix(0.95666652,0,0,0.95666652,216.19169,86.099987)"
       clip-path="url(#clipPath21)"><tspan
         id="tspan20"
         style="font-variant:normal;font-weight:700;font-size:14px;font-family:'Courier New';writing-mode:lr-tb;fill:#000000;fill-opacity:1;fill-rule:nonzero;stroke:none"
         x="0"
         y="0">MPUI_Send(buff2, H1)</tspan></text>
    <text
       id="text21"
       xml:space="preserve"
       transform="matrix(0.95666652,0,0,0.95666652,131.24269,19.13333)"
       clip-path="url(#clipPath22)"><tspan
         id="tspan21"
         style="font-variant:normal;font-weight:700;font-size:14px;font-family:'Courier New';writing-mode:lr-tb;fill:#000000;fill-opacity:1;fill-rule:nonzero;stroke:none"
         x="0"
         y="0">MPUI_Recv(...)</tspan></text>
  </g>
</svg>
